<svg width="18" height="20" viewBox="0 0 18 20" fill="none" xmlns="http://www.w3.org/2000/svg">
<g clip-path="url(#clip0_3_415)">
<path d="M14.6148 10.6253C14.645 13.652 17.4676 14.6592 17.4988 14.672C17.475 14.743 17.0478 16.1073 16.0118 17.5165C15.1161 18.7349 14.1866 19.9488 12.7223 19.9739C11.2835 19.9986 10.8209 19.1798 9.17589 19.1798C7.53141 19.1798 7.01738 19.9488 5.65538 19.9986C4.24196 20.0484 3.16563 18.6812 2.2626 17.4672C0.417301 14.9842 -0.99289 10.4507 0.900641 7.39055C1.84131 5.87086 3.52235 4.90852 5.34696 4.88385C6.7349 4.85921 8.04491 5.75294 8.89341 5.75294C9.74137 5.75294 11.3333 4.67815 13.0069 4.83599C13.7075 4.86314 15.6742 5.09941 16.9371 6.81987C16.8353 6.87858 14.5904 8.09493 14.6148 10.6253ZM11.9107 3.19324C12.6611 2.34783 13.1662 1.17094 13.0284 -6.10352e-05C11.9468 0.0404007 10.6388 0.67079 9.86301 1.51574C9.16771 2.26398 8.55879 3.46158 8.72309 4.6094C9.92869 4.69622 11.1603 4.03919 11.9107 3.19324Z" fill="#32343D"/>
</g>
<defs>
<clipPath id="clip0_3_415">
<rect width="17.5" height="20" fill="white"/>
</clipPath>
</defs>
</svg>
