<svg width="36" height="36" viewBox="0 0 36 36" fill="none" xmlns="http://www.w3.org/2000/svg">
<rect width="36" height="36" rx="18" fill="white" fill-opacity="0.6"/>
<path fill-rule="evenodd" clip-rule="evenodd" d="M19.3385 8H16.6615C16.1343 7.99998 15.6795 7.99997 15.305 8.03057C14.9096 8.06287 14.5164 8.13419 14.138 8.32698C13.5735 8.6146 13.1146 9.07355 12.827 9.63803C12.6342 10.0164 12.5629 10.4096 12.5306 10.805C12.5 11.1795 12.5 11.6343 12.5 12.1615L12.5 16L10.5681 16C10.3157 16 10.0699 15.9999 9.86178 16.017C9.63318 16.0356 9.36345 16.0797 9.09202 16.218C8.7157 16.4097 8.40974 16.7157 8.21799 17.092C8.07969 17.3635 8.03563 17.6332 8.01695 17.8618C7.99994 18.0699 7.99997 18.3157 8 18.5681L8 26C7.44772 26 7 26.4477 7 27C7 27.5523 7.44772 28 8 28H8.99721L9.00001 28L9.0028 28H26.9972L27 28L27.0028 28H28C28.5523 28 29 27.5523 29 27C29 26.4477 28.5523 26 28 26L28 18.568C28 18.3157 28.0001 18.0699 27.9831 17.8618C27.9644 17.6332 27.9203 17.3635 27.782 17.092C27.5903 16.7157 27.2843 16.4097 26.908 16.218C26.6366 16.0797 26.3668 16.0356 26.1382 16.017C25.9301 15.9999 25.6843 16 25.4319 16L23.5 16V12.1613C23.5 11.6342 23.5 11.1795 23.4694 10.805C23.4371 10.4096 23.3658 10.0164 23.173 9.63803C22.8854 9.07355 22.4265 8.6146 21.862 8.32698C21.4836 8.13419 21.0904 8.06287 20.695 8.03057C20.3205 7.99997 19.8657 7.99998 19.3385 8ZM16 13C16 12.4477 16.4477 12 17 12H19C19.5523 12 20 12.4477 20 13C20 13.5523 19.5523 14 19 14H17C16.4477 14 16 13.5523 16 13ZM16 17C16 16.4477 16.4477 16 17 16H19C19.5523 16 20 16.4477 20 17C20 17.5523 19.5523 18 19 18H17C16.4477 18 16 17.5523 16 17ZM17 20C16.4477 20 16 20.4477 16 21C16 21.5523 16.4477 22 17 22H19C19.5523 22 20 21.5523 20 21C20 20.4477 19.5523 20 19 20H17Z" fill="#4A6940"/>
</svg>
