<svg width="36" height="36" viewBox="0 0 36 36" fill="none" xmlns="http://www.w3.org/2000/svg">
<rect width="36" height="36" rx="18" fill="#C9D2C6"/>
<path fill-rule="evenodd" clip-rule="evenodd" d="M13.1615 8H22.8385C23.3657 7.99998 23.8205 7.99997 24.195 8.03057C24.5904 8.06287 24.9836 8.13419 25.362 8.32698C25.9265 8.6146 26.3854 9.07355 26.673 9.63803C26.8658 10.0164 26.9371 10.4096 26.9694 10.805C27 11.1795 27 11.6343 27 12.1614V26H28C28.5523 26 29 26.4477 29 27C29 27.5523 28.5523 28 28 28H8C7.44772 28 7 27.5523 7 27C7 26.4477 7.44772 26 8 26H9L9 12.1615C8.99998 11.6343 8.99997 11.1795 9.03057 10.805C9.06287 10.4096 9.13419 10.0164 9.32698 9.63803C9.6146 9.07355 10.0735 8.6146 10.638 8.32698C11.0164 8.13419 11.4096 8.06287 11.805 8.03057C12.1795 7.99997 12.6343 7.99998 13.1615 8ZM13.25 12C12.6977 12 12.25 12.4477 12.25 13C12.25 13.5523 12.6977 14 13.25 14H16C16.5523 14 17 13.5523 17 13C17 12.4477 16.5523 12 16 12H13.25ZM13.25 16C12.6977 16 12.25 16.4477 12.25 17C12.25 17.5523 12.6977 18 13.25 18H16C16.5523 18 17 17.5523 17 17C17 16.4477 16.5523 16 16 16H13.25ZM12.25 21C12.25 20.4477 12.6977 20 13.25 20H16C16.5523 20 17 20.4477 17 21C17 21.5523 16.5523 22 16 22H13.25C12.6977 22 12.25 21.5523 12.25 21ZM20 12C19.4477 12 19 12.4477 19 13C19 13.5523 19.4477 14 20 14H22.75C23.3023 14 23.75 13.5523 23.75 13C23.75 12.4477 23.3023 12 22.75 12H20ZM19 17C19 16.4477 19.4477 16 20 16H22.75C23.3023 16 23.75 16.4477 23.75 17C23.75 17.5523 23.3023 18 22.75 18H20C19.4477 18 19 17.5523 19 17ZM20 20C19.4477 20 19 20.4477 19 21C19 21.5523 19.4477 22 20 22H22.75C23.3023 22 23.75 21.5523 23.75 21C23.75 20.4477 23.3023 20 22.75 20H20Z" fill="white"/>
</svg>
