<svg width="51" height="42" viewBox="0 0 51 42" fill="none" xmlns="http://www.w3.org/2000/svg">
<path d="M33.522 3.87598C33.8907 3.87598 34.2046 4.16173 34.2046 4.53027C34.2044 4.89861 33.8906 5.18359 33.522 5.18359C30.6372 5.18366 28.0457 6.95168 27.1187 9.50391L27.0347 9.75293C26.9352 10.0711 26.6102 10.2532 26.2847 10.208L26.2778 10.2168L26.189 10.1914C25.8327 10.0909 25.6165 9.72978 25.728 9.37598C26.7268 6.20034 29.8338 3.87604 33.522 3.87598Z" fill="#4A6940" stroke="white" stroke-width="0.3"/>
<path d="M40.9711 29.2006H37.7786C37.4848 29.2006 37.2465 28.9751 37.2465 28.6971C37.2465 28.4191 37.4848 28.1936 37.7786 28.1936H40.9711C45.3718 28.1936 48.9524 24.8055 48.9524 20.6414C48.9524 16.4773 45.3718 13.0892 40.9711 13.0892H40.8943C40.74 13.0892 40.5933 13.0259 40.4922 12.9155C40.3911 12.8051 40.3455 12.6587 40.3675 12.5141C40.415 12.2005 40.439 11.8855 40.439 11.5788C40.439 7.96988 37.3357 5.03345 33.5218 5.03345C32.038 5.03345 30.6231 5.4722 29.4296 6.30257C29.1674 6.48491 28.7949 6.40399 28.6433 6.13103C25.2634 0.0410773 16.4355 -0.776741 11.8587 4.52098C9.93071 6.75284 9.17316 9.65612 9.78019 12.4858C9.84708 12.7983 9.59433 13.0896 9.25874 13.0896H9.04553C4.64482 13.0896 1.06423 16.4777 1.06423 20.6418C1.06423 24.8059 4.64482 28.194 9.04553 28.194H12.238C12.5318 28.194 12.7701 28.4195 12.7701 28.6975C12.7701 28.9755 12.5318 29.201 12.238 29.201H9.04553C4.05793 29.201 0 25.3612 0 20.6418C0 16.0547 3.83327 12.2987 8.62784 12.0915C8.17746 9.15586 9.03869 6.19466 11.0347 3.88373C15.9349 -1.78871 25.3256 -1.1529 29.2953 5.17227C30.5617 4.421 32.0108 4.02689 33.5216 4.02689C38.1424 4.02689 41.804 7.74836 41.4836 12.0962C46.234 12.3483 50.0164 16.0845 50.0164 20.6414C50.0164 25.3612 45.9584 29.2006 40.9708 29.2006L40.9711 29.2006Z" fill="#4A6940"/>
<path d="M24.9375 15.6753C32.3471 15.6755 38.3895 21.3817 38.3896 28.4126C38.3896 35.4436 32.3472 41.1497 24.9375 41.1499C17.5277 41.1499 11.4844 35.4438 11.4844 28.4126C11.4845 21.3816 17.5277 15.6753 24.9375 15.6753ZM24.9375 16.9829C18.2645 16.9829 12.8498 22.1182 12.8496 28.4126C12.8496 34.7073 18.2645 39.8433 24.9375 39.8433C31.6103 39.8431 37.0254 34.707 37.0254 28.4126C37.0252 22.1182 31.6102 16.9831 24.9375 16.9829Z" fill="#4A6940" stroke="white" stroke-width="0.3"/>
<path d="M25.1805 23.377C25.4703 23.377 25.7193 23.6017 25.7196 23.8955V33.4795C25.7196 33.7739 25.4704 33.998 25.1805 33.998C24.8905 33.998 24.6405 33.7736 24.6405 33.4795V23.8955C24.6407 23.6017 24.8906 23.377 25.1805 23.377Z" fill="#4A6940" stroke="#4A6940" stroke-width="0.3"/>
<path d="M24.8008 23.5273C25.0106 23.3284 25.3486 23.3286 25.5586 23.5273L28.6748 26.4766C28.8893 26.6798 28.8894 27.0127 28.6748 27.2158L28.6738 27.2148C28.5679 27.3153 28.4307 27.3643 28.2959 27.3643C28.1609 27.3642 28.0236 27.3156 27.9179 27.2158L25.1797 24.624L22.4424 27.2158L22.4414 27.2148C22.2315 27.4136 21.8945 27.4144 21.6845 27.2158C21.4699 27.0127 21.4701 26.6798 21.6845 26.4766L24.8008 23.5273Z" fill="#4A6940" stroke="#4A6940" stroke-width="0.3"/>
</svg>
