<svg width="36" height="36" viewBox="0 0 36 36" fill="none" xmlns="http://www.w3.org/2000/svg">
<rect width="36" height="36" rx="18" fill="#C9D2C6"/>
<path d="M12.1615 8H23.8385C24.3657 7.99998 24.8205 7.99997 25.195 8.03057C25.5904 8.06287 25.9836 8.13419 26.362 8.32698C26.9265 8.6146 27.3854 9.07355 27.673 9.63803C27.8658 10.0164 27.9371 10.4096 27.9694 10.805C28 11.1795 28 11.6343 28 12.1614L28 13C28 13.9263 27.0031 15 25.3333 15C23.6636 15 22.6667 13.9263 22.6667 13C22.6667 12.4477 22.219 12 21.6667 12C21.1144 12 20.6667 12.4477 20.6667 13C20.6667 13.9263 19.6697 15 18 15C16.3303 15 15.3333 13.9263 15.3333 13C15.3333 12.4477 14.8856 12 14.3333 12C13.7811 12 13.3333 12.4477 13.3333 13C13.3333 13.9263 12.3364 15 10.6667 15C8.99692 15 8 13.9263 8 13V12.1614C7.99998 11.6343 7.99997 11.1795 8.03057 10.805C8.06287 10.4096 8.13419 10.0164 8.32698 9.63803C8.6146 9.07355 9.07355 8.6146 9.63803 8.32698C10.0164 8.13419 10.4096 8.06287 10.805 8.03057C11.1795 7.99997 11.6343 7.99998 12.1615 8Z" fill="white"/>
<path fill-rule="evenodd" clip-rule="evenodd" d="M25.3333 17C26.2837 17 27.2191 16.7429 28 16.2821V23.8386C28 24.3657 28 24.8205 27.9694 25.195C27.9371 25.5904 27.8658 25.9836 27.673 26.362C27.3854 26.9265 26.9265 27.3854 26.362 27.673C25.9836 27.8658 25.5904 27.9371 25.195 27.9694C24.8205 28 24.3657 28 23.8386 28H12.1614C11.6343 28 11.1795 28 10.805 27.9694C10.4096 27.9371 10.0164 27.8658 9.63803 27.673C9.07355 27.3854 8.6146 26.9265 8.32698 26.362C8.13419 25.9836 8.06287 25.5904 8.03057 25.195C7.99997 24.8205 7.99998 24.3657 8 23.8386V16.2821C8.78088 16.7429 9.71628 17 10.6667 17C12.0721 17 13.4447 16.4379 14.3333 15.486C15.222 16.4379 16.5946 17 18 17C19.4054 17 20.778 16.4379 21.6667 15.486C22.5553 16.4379 23.9279 17 25.3333 17ZM16.6 20H19.4C19.9601 20 20.2401 20 20.454 20.109C20.6422 20.2049 20.7951 20.3578 20.891 20.546C21 20.7599 21 21.0399 21 21.6V26H15V21.6C15 21.0399 15 20.7599 15.109 20.546C15.2049 20.3578 15.3578 20.2049 15.546 20.109C15.7599 20 16.0399 20 16.6 20Z" fill="white"/>
</svg>
